<?xml version="1.0" encoding="utf-8"?>
<!-- Generator: Adobe Illustrator 19.0.0, SVG Export Plug-In . SVG Version: 6.00 Build 0)  -->
<!DOCTYPE svg PUBLIC "-//W3C//DTD SVG 1.1//EN" "http://www.w3.org/Graphics/SVG/1.1/DTD/svg11.dtd">
<svg version="1.1" id="Layer_1" xmlns="http://www.w3.org/2000/svg" xmlns:xlink="http://www.w3.org/1999/xlink" x="0px" y="0px"
	 viewBox="0 0 60.2 45.5" enable-background="new 0 0 60.2 45.5" xml:space="preserve">
<g id="XMLID_60_">
	<g id="XMLID_26_">
		<path id="XMLID_32_" fill="#B89E4E" d="M56.2,8H4C1.8,8,0,6.2,0,4s1.8-4,4-4h52.2c2.2,0,4,1.8,4,4S58.4,8,56.2,8z"/>
	</g>
	<g id="XMLID_27_">
		<path id="XMLID_31_" fill="#B89E4E" d="M56.2,45.5H4c-2.2,0-4-1.8-4-4s1.8-4,4-4h52.2c2.2,0,4,1.8,4,4S58.4,45.5,56.2,45.5z"/>
	</g>
	<g id="XMLID_28_">
		<path id="XMLID_25_" fill="#B89E4E" d="M38.7,26.7H21.5c-2.2,0-4-1.8-4-4s1.8-4,4-4h17.2c2.2,0,4,1.8,4,4S40.9,26.7,38.7,26.7z"/>
	</g>
	<g id="XMLID_30_">
		<path id="XMLID_24_" fill="#B89E4E" d="M7.9,26.7H4c-2.2,0-4-1.8-4-4s1.8-4,4-4h3.9c2.2,0,4,1.8,4,4S10.1,26.7,7.9,26.7z"/>
	</g>
	<g id="XMLID_29_">
		<path id="XMLID_23_" fill="#B89E4E" d="M56.2,26.7h-3.9c-2.2,0-4-1.8-4-4s1.8-4,4-4h3.9c2.2,0,4,1.8,4,4S58.4,26.7,56.2,26.7z"/>
	</g>
</g>
</svg>
