<?xml version="1.0" encoding="utf-8"?>
<!-- Generator: Adobe Illustrator 19.1.0, SVG Export Plug-In . SVG Version: 6.00 Build 0)  -->
<!DOCTYPE svg PUBLIC "-//W3C//DTD SVG 1.1//EN" "http://www.w3.org/Graphics/SVG/1.1/DTD/svg11.dtd">
<svg version="1.1" id="load-logo" xmlns="http://www.w3.org/2000/svg" xmlns:xlink="http://www.w3.org/1999/xlink" x="0px" y="0px"
	 viewBox="591.1 -33 1792.8 857" style="enable-background:new 591.1 -33 1792.8 857;" xml:space="preserve">
<style type="text/css">
	.st0{clip-path:url(#SVGID_5_);}
	.st1{clip-path:url(#SVGID_10_);}
	.st2{clip-path:url(#SVGID_11_);}
	.st3{clip-path:url(#SVGID_17_);}
	.st4{clip-path:url(#SVGID_18_);}
	.st5{clip-path:url(#SVGID_19_);}
	.st6{clip-path:url(#SVGID_26_);}
	.st7{clip-path:url(#SVGID_27_);}
	.st8{clip-path:url(#SVGID_28_);}
	.st9{clip-path:url(#SVGID_29_);}
	.st10{clip-path:url(#SVGID_37_);}
	.st11{clip-path:url(#SVGID_38_);}
	.st12{clip-path:url(#SVGID_39_);}
	.st13{clip-path:url(#SVGID_40_);}
	.st14{clip-path:url(#SVGID_41_);}
	.st15{clip-path:url(#SVGID_42_);}
	.st16{fill:#FFFFFF;}
</style>
<g>
	<g>
		<defs>
			<path id="SVGID_1_" d="M1679.4-33c4.5,19.6,9.3,39.1,13.5,58.8c22.3,104.5,44.5,209.1,66.8,313.7c0.3,1.4,0.5,2.9,0.8,4.9
				c-46.9,0-93.2,0-140.6,0c-1.7-23.6-3.4-47.1-5.1-70.9c-21.1,0-41.3,0-61.9,0c-6.9,23.8-13.7,47.5-20.6,71.1
				c-89.3,0-177.9,0-267.7,0c22-97.5,43.9-194.2,66-291.8c-3.4-0.2-6-0.6-8.6-0.6c-45.6,0-91.1,0-136.7,0.3
				c-7.1,0.1-14.4,1.4-21.4,3c-7.1,1.6-13.2,5.1-12.2,14.1c1,8.3,8,14.9,16.6,15c20.8,0.2,41.6,0.1,62.5,0.1
				c15.1,0,30.2-0.2,45.3,0.2c20.3,0.5,29.8,11.3,25.6,31.2c-7.1,33.9-15.5,67.5-23.4,101.2c-6.4,27.2-13.6,54.3-19.5,81.7
				c-6.4,29.8-24.3,41.9-52.6,44.6c-19.7,1.9-39.8,1.4-59.7,1.4c-69.7,0.1-139.4,0.2-209.1-0.1c-8.9,0-18.2-1.1-26.7-3.6
				c-14.9-4.3-21.6-16.6-17.8-31.7c2.1-8.4,5.3-16.7,9.5-24.3c14.3-25.8,29.2-51.4,44.2-76.8c1.6-2.7,5.8-5.5,8.8-5.5
				c43.7-0.4,87.5-0.3,131.3-0.2c1.2,0,2.4,0.3,4.7,0.6c-1.3,3.4-2.6,6.3-3.6,9.3c-4.3,13.7,2.8,23.4,17,23.6
				c32.6,0.5,32.6,0.5,44.1-30.3c1.7-4.5,3.7-9,4.8-13.6c3.1-12.5-2.2-19.2-15-19.2c-37.7-0.1-75.4,0-113.2,0
				c-33.7,0-46.2-19.4-30-48.8c23.6-42.7,48.4-84.8,73.2-126.9c10.6-18,27.4-26.7,47.9-28.8c2.9-0.3,5.8-1.1,8.8-1.7
				c137.6,0,275.3,0,412.9,0c-10,25.8-20.1,51.6-29.7,77.6c-2.3,6.2-5.7,7.8-11.9,7.7c-19.2-0.4-38.5-0.1-58.3-0.1
				c-8.8,90.2-17.6,179.6-26.3,269c2-1.6,2.9-3.5,3.6-5.4c28.3-73,56.5-146.1,84.8-219.1c16.6-43.3,33.5-86.5,50.4-129.7
				C1593.7-33,1636.6-33,1679.4-33z M1609.6,194.8c-1.6-23.8-3.2-47-4.7-69.8c-7-2.2-10.3-0.3-11.3,6c-0.5,2.9-1.7,5.8-2.5,8.6
				c-5.1,18.2-10.3,36.3-15.6,55.2C1587.1,194.8,1597.8,194.8,1609.6,194.8z"/>
		</defs>
		<clipPath id="SVGID_2_">
			<use xlink:href="#SVGID_1_"  style="overflow:visible;"/>
		</clipPath>
	</g>
	<g>
		<defs>
			<path id="SVGID_3_" d="M1679.4-33c4.5,19.6,9.3,39.1,13.5,58.8c22.3,104.5,44.5,209.1,66.8,313.7c0.3,1.4,0.5,2.9,0.8,4.9
				c-46.9,0-93.2,0-140.6,0c-1.7-23.6-3.4-47.1-5.1-70.9c-21.1,0-41.3,0-61.9,0c-6.9,23.8-13.7,47.5-20.6,71.1
				c-89.3,0-177.9,0-267.7,0c22-97.5,43.9-194.2,66-291.8c-3.4-0.2-6-0.6-8.6-0.6c-45.6,0-91.1,0-136.7,0.3
				c-7.1,0.1-14.4,1.4-21.4,3c-7.1,1.6-13.2,5.1-12.2,14.1c1,8.3,8,14.9,16.6,15c20.8,0.2,41.6,0.1,62.5,0.1
				c15.1,0,30.2-0.2,45.3,0.2c20.3,0.5,29.8,11.3,25.6,31.2c-7.1,33.9-15.5,67.5-23.4,101.2c-6.4,27.2-13.6,54.3-19.5,81.7
				c-6.4,29.8-24.3,41.9-52.6,44.6c-19.7,1.9-39.8,1.4-59.7,1.4c-69.7,0.1-139.4,0.2-209.1-0.1c-8.9,0-18.2-1.1-26.7-3.6
				c-14.9-4.3-21.6-16.6-17.8-31.7c2.1-8.4,5.3-16.7,9.5-24.3c14.3-25.8,29.2-51.4,44.2-76.8c1.6-2.7,5.8-5.5,8.8-5.5
				c43.7-0.4,87.5-0.3,131.3-0.2c1.2,0,2.4,0.3,4.7,0.6c-1.3,3.4-2.6,6.3-3.6,9.3c-4.3,13.7,2.8,23.4,17,23.6
				c32.6,0.5,32.6,0.5,44.1-30.3c1.7-4.5,3.7-9,4.8-13.6c3.1-12.5-2.2-19.2-15-19.2c-37.7-0.1-75.4,0-113.2,0
				c-33.7,0-46.2-19.4-30-48.8c23.6-42.7,48.4-84.8,73.2-126.9c10.6-18,27.4-26.7,47.9-28.8c2.9-0.3,5.8-1.1,8.8-1.7
				c137.6,0,275.3,0,412.9,0c-10,25.8-20.1,51.6-29.7,77.6c-2.3,6.2-5.7,7.8-11.9,7.7c-19.2-0.4-38.5-0.1-58.3-0.1
				c-8.8,90.2-17.6,179.6-26.3,269c2-1.6,2.9-3.5,3.6-5.4c28.3-73,56.5-146.1,84.8-219.1c16.6-43.3,33.5-86.5,50.4-129.7
				C1593.7-33,1636.6-33,1679.4-33z M1609.6,194.8c-1.6-23.8-3.2-47-4.7-69.8c-7-2.2-10.3-0.3-11.3,6c-0.5,2.9-1.7,5.8-2.5,8.6
				c-5.1,18.2-10.3,36.3-15.6,55.2C1587.1,194.8,1597.8,194.8,1609.6,194.8z"/>
		</defs>
		<defs>
			<path id="SVGID_4_" d="M591.1,821.7c5.5-8.8,11.3-17.5,16.5-26.6C690.4,651.8,773.2,508.4,855.8,365c3.6-6.3,7.5-8.7,14.8-8.6
				c35,0.4,69.9,0.2,106.8,0.2c-39.6,74.7-78.5,148.3-117.5,221.8c0.4,0.3,0.8,0.6,1.3,0.9c9.2-10.5,18.4-21,27.6-31.6
				c53.3-61.6,106.7-123.1,159.9-184.8c3.9-4.5,7.8-6.5,13.9-6.4c28.9,0.3,57.9,0.1,88.3,0.1c-18.9,71.1-37.5,141.3-56.2,211.5
				c0.5,0.2,0.9,0.5,1.4,0.7c9.7-14.7,19.4-29.4,29.1-44.1c34.9-53.5,69.9-107,104.6-160.7c3.5-5.5,7.3-7.5,13.7-7.5
				c36.8,0.3,73.6,0.2,110.5,0.2c2.6,0,5.2,0.2,8.9,0.4c-1.9,3.5-3.2,6.1-4.7,8.5c-92.5,149.8-184.7,299.4-276.7,449.2
				c-4.2,6.8-8.5,9.2-16.4,9.1c-48.9-0.4-97.8-0.2-146.7-0.2c-3,0-5.9,0-10.1,0c19.1-72.4,38-143.9,56.9-215.4
				c-9.3-4.2-14.1,0.3-18.9,6.5c-52.5,67.7-105.1,135.3-158,202.7c-2.4,3-7.1,5.9-10.7,5.9c-62.2,0.3-124.3,0.1-186.5,0.1
				C591.1,822.9,591.1,822.3,591.1,821.7z"/>
		</defs>
		<clipPath id="SVGID_5_">
			<use xlink:href="#SVGID_3_"  style="overflow:visible;"/>
		</clipPath>
		<clipPath id="SVGID_6_" class="st0">
			<use xlink:href="#SVGID_4_"  style="overflow:visible;"/>
		</clipPath>
	</g>
	<g>
		<defs>
			<path id="SVGID_7_" d="M1679.4-33c4.5,19.6,9.3,39.1,13.5,58.8c22.3,104.5,44.5,209.1,66.8,313.7c0.3,1.4,0.5,2.9,0.8,4.9
				c-46.9,0-93.2,0-140.6,0c-1.7-23.6-3.4-47.1-5.1-70.9c-21.1,0-41.3,0-61.9,0c-6.9,23.8-13.7,47.5-20.6,71.1
				c-89.3,0-177.9,0-267.7,0c22-97.5,43.9-194.2,66-291.8c-3.4-0.2-6-0.6-8.6-0.6c-45.6,0-91.1,0-136.7,0.3
				c-7.1,0.1-14.4,1.4-21.4,3c-7.1,1.6-13.2,5.1-12.2,14.1c1,8.3,8,14.9,16.6,15c20.8,0.2,41.6,0.1,62.5,0.1
				c15.1,0,30.2-0.2,45.3,0.2c20.3,0.5,29.8,11.3,25.6,31.2c-7.1,33.9-15.5,67.5-23.4,101.2c-6.4,27.2-13.6,54.3-19.5,81.7
				c-6.4,29.8-24.3,41.9-52.6,44.6c-19.7,1.9-39.8,1.4-59.7,1.4c-69.7,0.1-139.4,0.2-209.1-0.1c-8.9,0-18.2-1.1-26.7-3.6
				c-14.9-4.3-21.6-16.6-17.8-31.7c2.1-8.4,5.3-16.7,9.5-24.3c14.3-25.8,29.2-51.4,44.2-76.8c1.6-2.7,5.8-5.5,8.8-5.5
				c43.7-0.4,87.5-0.3,131.3-0.2c1.2,0,2.4,0.3,4.7,0.6c-1.3,3.4-2.6,6.3-3.6,9.3c-4.3,13.7,2.8,23.4,17,23.6
				c32.6,0.5,32.6,0.5,44.1-30.3c1.7-4.5,3.7-9,4.8-13.6c3.1-12.5-2.2-19.2-15-19.2c-37.7-0.1-75.4,0-113.2,0
				c-33.7,0-46.2-19.4-30-48.8c23.6-42.7,48.4-84.8,73.2-126.9c10.6-18,27.4-26.7,47.9-28.8c2.9-0.3,5.8-1.1,8.8-1.7
				c137.6,0,275.3,0,412.9,0c-10,25.8-20.1,51.6-29.7,77.6c-2.3,6.2-5.7,7.8-11.9,7.7c-19.2-0.4-38.5-0.1-58.3-0.1
				c-8.8,90.2-17.6,179.6-26.3,269c2-1.6,2.9-3.5,3.6-5.4c28.3-73,56.5-146.1,84.8-219.1c16.6-43.3,33.5-86.5,50.4-129.7
				C1593.7-33,1636.6-33,1679.4-33z M1609.6,194.8c-1.6-23.8-3.2-47-4.7-69.8c-7-2.2-10.3-0.3-11.3,6c-0.5,2.9-1.7,5.8-2.5,8.6
				c-5.1,18.2-10.3,36.3-15.6,55.2C1587.1,194.8,1597.8,194.8,1609.6,194.8z"/>
		</defs>
		<defs>
			<path id="SVGID_8_" d="M591.1,821.7c5.5-8.8,11.3-17.5,16.5-26.6C690.4,651.8,773.2,508.4,855.8,365c3.6-6.3,7.5-8.7,14.8-8.6
				c35,0.4,69.9,0.2,106.8,0.2c-39.6,74.7-78.5,148.3-117.5,221.8c0.4,0.3,0.8,0.6,1.3,0.9c9.2-10.5,18.4-21,27.6-31.6
				c53.3-61.6,106.7-123.1,159.9-184.8c3.9-4.5,7.8-6.5,13.9-6.4c28.9,0.3,57.9,0.1,88.3,0.1c-18.9,71.1-37.5,141.3-56.2,211.5
				c0.5,0.2,0.9,0.5,1.4,0.7c9.7-14.7,19.4-29.4,29.1-44.1c34.9-53.5,69.9-107,104.6-160.7c3.5-5.5,7.3-7.5,13.7-7.5
				c36.8,0.3,73.6,0.2,110.5,0.2c2.6,0,5.2,0.2,8.9,0.4c-1.9,3.5-3.2,6.1-4.7,8.5c-92.5,149.8-184.7,299.4-276.7,449.2
				c-4.2,6.8-8.5,9.2-16.4,9.1c-48.9-0.4-97.8-0.2-146.7-0.2c-3,0-5.9,0-10.1,0c19.1-72.4,38-143.9,56.9-215.4
				c-9.3-4.2-14.1,0.3-18.9,6.5c-52.5,67.7-105.1,135.3-158,202.7c-2.4,3-7.1,5.9-10.7,5.9c-62.2,0.3-124.3,0.1-186.5,0.1
				C591.1,822.9,591.1,822.3,591.1,821.7z"/>
		</defs>
		<defs>
			<path id="SVGID_9_" d="M1905.8-33c6.9,1.9,14.1,3.1,20.8,5.7c12.6,4.8,21.6,14.1,28.1,25.8c25.7,46.1,51.4,92.1,76.7,138.4
				c10.1,18.6,4.1,33.7-15.2,41.4c-11,4.4-11.9,9.7-2.8,19.8c32.6,36,65.4,71.9,98.1,107.8c11.3,12.4,22.6,24.9,34.9,38.5
				c-3.8,0.3-6,0.7-8.3,0.7c-47.7,0-95.4-0.2-143,0c-6.1,0-9.8-1.9-13.5-6.8c-33.7-44.9-67.6-89.5-101.5-134.2
				c-2.5-3.4-5.5-6.4-8.3-9.6c-1,0.6-1.9,1.2-2.9,1.7c17.4,49.1,34.7,98.1,52.4,148.2c-49,0-96.5,0-145.2,0
				c-3.7-16.4-7.6-33-11.3-49.6c-23.9-105.7-47.9-211.5-71.7-317.2c-0.8-3.4-0.6-7-0.8-10.5C1763.3-33,1834.6-33,1905.8-33z
				 M1817.6,52.2c3.7,10.3,6.5,19.1,10.1,27.7c0.9,2.1,4,4.4,6.2,4.5c9.3,0.5,18.7,0.8,27.9-0.2c3.6-0.4,8.6-3.8,9.9-7.1
				c3.5-9.1-6.9-24.4-16.7-24.8C1843,51.7,1831,52.2,1817.6,52.2z"/>
		</defs>
		<clipPath id="SVGID_10_">
			<use xlink:href="#SVGID_7_"  style="overflow:visible;"/>
		</clipPath>
		<clipPath id="SVGID_11_" class="st1">
			<use xlink:href="#SVGID_8_"  style="overflow:visible;"/>
		</clipPath>
		<clipPath id="SVGID_12_" class="st2">
			<use xlink:href="#SVGID_9_"  style="overflow:visible;"/>
		</clipPath>
	</g>
	<g>
		<defs>
			<path id="SVGID_13_" d="M1679.4-33c4.5,19.6,9.3,39.1,13.5,58.8c22.3,104.5,44.5,209.1,66.8,313.7c0.3,1.4,0.5,2.9,0.8,4.9
				c-46.9,0-93.2,0-140.6,0c-1.7-23.6-3.4-47.1-5.1-70.9c-21.1,0-41.3,0-61.9,0c-6.9,23.8-13.7,47.5-20.6,71.1
				c-89.3,0-177.9,0-267.7,0c22-97.5,43.9-194.2,66-291.8c-3.4-0.2-6-0.6-8.6-0.6c-45.6,0-91.1,0-136.7,0.3
				c-7.1,0.1-14.4,1.4-21.4,3c-7.1,1.6-13.2,5.1-12.2,14.1c1,8.3,8,14.9,16.6,15c20.8,0.2,41.6,0.1,62.5,0.1
				c15.1,0,30.2-0.2,45.3,0.2c20.3,0.5,29.8,11.3,25.6,31.2c-7.1,33.9-15.5,67.5-23.4,101.2c-6.4,27.2-13.6,54.3-19.5,81.7
				c-6.4,29.8-24.3,41.9-52.6,44.6c-19.7,1.9-39.8,1.4-59.7,1.4c-69.7,0.1-139.4,0.2-209.1-0.1c-8.9,0-18.2-1.1-26.7-3.6
				c-14.9-4.3-21.6-16.6-17.8-31.7c2.1-8.4,5.3-16.7,9.5-24.3c14.3-25.8,29.2-51.4,44.2-76.8c1.6-2.7,5.8-5.5,8.8-5.5
				c43.7-0.4,87.5-0.3,131.3-0.2c1.2,0,2.4,0.3,4.7,0.6c-1.3,3.4-2.6,6.3-3.6,9.3c-4.3,13.7,2.8,23.4,17,23.6
				c32.6,0.5,32.6,0.5,44.1-30.3c1.7-4.5,3.7-9,4.8-13.6c3.1-12.5-2.2-19.2-15-19.2c-37.7-0.1-75.4,0-113.2,0
				c-33.7,0-46.2-19.4-30-48.8c23.6-42.7,48.4-84.8,73.2-126.9c10.6-18,27.4-26.7,47.9-28.8c2.9-0.3,5.8-1.1,8.8-1.7
				c137.6,0,275.3,0,412.9,0c-10,25.8-20.1,51.6-29.7,77.6c-2.3,6.2-5.7,7.8-11.9,7.7c-19.2-0.4-38.5-0.1-58.3-0.1
				c-8.8,90.2-17.6,179.6-26.3,269c2-1.6,2.9-3.5,3.6-5.4c28.3-73,56.5-146.1,84.8-219.1c16.6-43.3,33.5-86.5,50.4-129.7
				C1593.7-33,1636.6-33,1679.4-33z M1609.6,194.8c-1.6-23.8-3.2-47-4.7-69.8c-7-2.2-10.3-0.3-11.3,6c-0.5,2.9-1.7,5.8-2.5,8.6
				c-5.1,18.2-10.3,36.3-15.6,55.2C1587.1,194.8,1597.8,194.8,1609.6,194.8z"/>
		</defs>
		<defs>
			<path id="SVGID_14_" d="M591.1,821.7c5.5-8.8,11.3-17.5,16.5-26.6C690.4,651.8,773.2,508.4,855.8,365c3.6-6.3,7.5-8.7,14.8-8.6
				c35,0.4,69.9,0.2,106.8,0.2c-39.6,74.7-78.5,148.3-117.5,221.8c0.4,0.3,0.8,0.6,1.3,0.9c9.2-10.5,18.4-21,27.6-31.6
				c53.3-61.6,106.7-123.1,159.9-184.8c3.9-4.5,7.8-6.5,13.9-6.4c28.9,0.3,57.9,0.1,88.3,0.1c-18.9,71.1-37.5,141.3-56.2,211.5
				c0.5,0.2,0.9,0.5,1.4,0.7c9.7-14.7,19.4-29.4,29.1-44.1c34.9-53.5,69.9-107,104.6-160.7c3.5-5.5,7.3-7.5,13.7-7.5
				c36.8,0.3,73.6,0.2,110.5,0.2c2.6,0,5.2,0.2,8.9,0.4c-1.9,3.5-3.2,6.1-4.7,8.5c-92.5,149.8-184.7,299.4-276.7,449.2
				c-4.2,6.8-8.5,9.2-16.4,9.1c-48.9-0.4-97.8-0.2-146.7-0.2c-3,0-5.9,0-10.1,0c19.1-72.4,38-143.9,56.9-215.4
				c-9.3-4.2-14.1,0.3-18.9,6.5c-52.5,67.7-105.1,135.3-158,202.7c-2.4,3-7.1,5.9-10.7,5.9c-62.2,0.3-124.3,0.1-186.5,0.1
				C591.1,822.9,591.1,822.3,591.1,821.7z"/>
		</defs>
		<defs>
			<path id="SVGID_15_" d="M1905.8-33c6.9,1.9,14.1,3.1,20.8,5.7c12.6,4.8,21.6,14.1,28.1,25.8c25.7,46.1,51.4,92.1,76.7,138.4
				c10.1,18.6,4.1,33.7-15.2,41.4c-11,4.4-11.9,9.7-2.8,19.8c32.6,36,65.4,71.9,98.1,107.8c11.3,12.4,22.6,24.9,34.9,38.5
				c-3.8,0.3-6,0.7-8.3,0.7c-47.7,0-95.4-0.2-143,0c-6.1,0-9.8-1.9-13.5-6.8c-33.7-44.9-67.6-89.5-101.5-134.2
				c-2.5-3.4-5.5-6.4-8.3-9.6c-1,0.6-1.9,1.2-2.9,1.7c17.4,49.1,34.7,98.1,52.4,148.2c-49,0-96.5,0-145.2,0
				c-3.7-16.4-7.6-33-11.3-49.6c-23.9-105.7-47.9-211.5-71.7-317.2c-0.8-3.4-0.6-7-0.8-10.5C1763.3-33,1834.6-33,1905.8-33z
				 M1817.6,52.2c3.7,10.3,6.5,19.1,10.1,27.7c0.9,2.1,4,4.4,6.2,4.5c9.3,0.5,18.7,0.8,27.9-0.2c3.6-0.4,8.6-3.8,9.9-7.1
				c3.5-9.1-6.9-24.4-16.7-24.8C1843,51.7,1831,52.2,1817.6,52.2z"/>
		</defs>
		<defs>
			<path id="SVGID_16_" d="M1925.1,640.8c50.7,0,99.6-0.1,148.4,0.2c2.6,0,6.3,3.1,7.4,5.6c4.2,9,7.2,18.5,11.2,27.6
				c6.8,15.9,29.9,23.4,45.1,14.8c7.1-4,10.1-12.1,6.8-20.4c-4-10.1-8-20.2-13-29.8c-6.1-11.7-15.7-18.4-29.8-18.4
				c-41,0.2-82.1,0.2-123.1,0c-7.8,0-15.7-0.7-23.4-1.7c-20.7-2.6-35.7-14-42.9-33.1c-8.1-21.6-14.3-44-20.8-66.2
				c-11.1-38.1-21.8-76.4-32.6-114.7c-1.3-4.6-2.6-9.3-3.1-14.1c-1.6-14,4.1-24.7,17.5-29c9.6-3.1,20-4.9,30.1-5
				c69.1-0.4,138.2-0.3,207.3-0.1c9,0,18.1,1.5,26.8,3.5c13.1,3,23.9,10,30.6,22.1c19.5,35,38.9,70.1,58.3,105.2
				c0.7,1.2,1.1,2.6,1.9,4.7c-3.4,0.2-6,0.5-8.6,0.5c-47.4,0-94.7-0.1-142.1,0.1c-6.4,0-9.9-1.6-12-7.9
				c-7.7-23.6-21.3-22.2-43.8-19.7c-6,0.7-8.2,6.1-6.3,11.8c2.6,7.7,5.3,15.5,9,22.6c4.1,7.9,11.9,10.7,20.5,10.8
				c25,0.1,50.1,0,75.1,0.2c27.7,0.2,55.5,0.3,83.2,1.4c9.4,0.4,19,3.3,28.1,6.2c10.3,3.4,17.9,10.4,23.3,20.2
				c40.2,72.8,80.6,145.6,120.9,218.3c1.5,2.6,2.9,5.3,4.1,8c13.7,31.9-3.5,58.6-38.1,58.7c-105.6,0.1-211.2,0.1-316.8,0
				c-27.6,0-48.8-13.9-58.3-43C1951.3,735,1938.9,688.4,1925.1,640.8z"/>
		</defs>
		<clipPath id="SVGID_17_">
			<use xlink:href="#SVGID_13_"  style="overflow:visible;"/>
		</clipPath>
		<clipPath id="SVGID_18_" class="st3">
			<use xlink:href="#SVGID_14_"  style="overflow:visible;"/>
		</clipPath>
		<clipPath id="SVGID_19_" class="st4">
			<use xlink:href="#SVGID_15_"  style="overflow:visible;"/>
		</clipPath>
		<clipPath id="SVGID_20_" class="st5">
			<use xlink:href="#SVGID_16_"  style="overflow:visible;"/>
		</clipPath>
	</g>
	<g>
		<defs>
			<path id="SVGID_21_" d="M1679.4-33c4.5,19.6,9.3,39.1,13.5,58.8c22.3,104.5,44.5,209.1,66.8,313.7c0.3,1.4,0.5,2.9,0.8,4.9
				c-46.9,0-93.2,0-140.6,0c-1.7-23.6-3.4-47.1-5.1-70.9c-21.1,0-41.3,0-61.9,0c-6.9,23.8-13.7,47.5-20.6,71.1
				c-89.3,0-177.9,0-267.7,0c22-97.5,43.9-194.2,66-291.8c-3.4-0.2-6-0.6-8.6-0.6c-45.6,0-91.1,0-136.7,0.3
				c-7.1,0.1-14.4,1.4-21.4,3c-7.1,1.6-13.2,5.1-12.2,14.1c1,8.3,8,14.9,16.6,15c20.8,0.2,41.6,0.1,62.5,0.1
				c15.1,0,30.2-0.2,45.3,0.2c20.3,0.5,29.8,11.3,25.6,31.2c-7.1,33.9-15.5,67.5-23.4,101.2c-6.4,27.2-13.6,54.3-19.5,81.7
				c-6.4,29.8-24.3,41.9-52.6,44.6c-19.7,1.9-39.8,1.4-59.7,1.4c-69.7,0.1-139.4,0.2-209.1-0.1c-8.9,0-18.2-1.1-26.7-3.6
				c-14.9-4.3-21.6-16.6-17.8-31.7c2.1-8.4,5.3-16.7,9.5-24.3c14.3-25.8,29.2-51.4,44.2-76.8c1.6-2.7,5.8-5.5,8.8-5.5
				c43.7-0.4,87.5-0.3,131.3-0.2c1.2,0,2.4,0.3,4.7,0.6c-1.3,3.4-2.6,6.3-3.6,9.3c-4.3,13.7,2.8,23.4,17,23.6
				c32.6,0.5,32.6,0.5,44.1-30.3c1.7-4.5,3.7-9,4.8-13.6c3.1-12.5-2.2-19.2-15-19.2c-37.7-0.1-75.4,0-113.2,0
				c-33.7,0-46.2-19.4-30-48.8c23.6-42.7,48.4-84.8,73.2-126.9c10.6-18,27.4-26.7,47.9-28.8c2.9-0.3,5.8-1.1,8.8-1.7
				c137.6,0,275.3,0,412.9,0c-10,25.8-20.1,51.6-29.7,77.6c-2.3,6.2-5.7,7.8-11.9,7.7c-19.2-0.4-38.5-0.1-58.3-0.1
				c-8.8,90.2-17.6,179.6-26.3,269c2-1.6,2.9-3.5,3.6-5.4c28.3-73,56.5-146.1,84.8-219.1c16.6-43.3,33.5-86.5,50.4-129.7
				C1593.7-33,1636.6-33,1679.4-33z M1609.6,194.8c-1.6-23.8-3.2-47-4.7-69.8c-7-2.2-10.3-0.3-11.3,6c-0.5,2.9-1.7,5.8-2.5,8.6
				c-5.1,18.2-10.3,36.3-15.6,55.2C1587.1,194.8,1597.8,194.8,1609.6,194.8z"/>
		</defs>
		<defs>
			<path id="SVGID_22_" d="M591.1,821.7c5.5-8.8,11.3-17.5,16.5-26.6C690.4,651.8,773.2,508.4,855.8,365c3.6-6.3,7.5-8.7,14.8-8.6
				c35,0.4,69.9,0.2,106.8,0.2c-39.6,74.7-78.5,148.3-117.5,221.8c0.4,0.3,0.8,0.6,1.3,0.9c9.2-10.5,18.4-21,27.6-31.6
				c53.3-61.6,106.7-123.1,159.9-184.8c3.9-4.5,7.8-6.5,13.9-6.4c28.9,0.3,57.9,0.1,88.3,0.1c-18.9,71.1-37.5,141.3-56.2,211.5
				c0.5,0.2,0.9,0.5,1.4,0.7c9.7-14.7,19.4-29.4,29.1-44.1c34.9-53.5,69.9-107,104.6-160.7c3.5-5.5,7.3-7.5,13.7-7.5
				c36.8,0.3,73.6,0.2,110.5,0.2c2.6,0,5.2,0.2,8.9,0.4c-1.9,3.5-3.2,6.1-4.7,8.5c-92.5,149.8-184.7,299.4-276.7,449.2
				c-4.2,6.8-8.5,9.2-16.4,9.1c-48.9-0.4-97.8-0.2-146.7-0.2c-3,0-5.9,0-10.1,0c19.1-72.4,38-143.9,56.9-215.4
				c-9.3-4.2-14.1,0.3-18.9,6.5c-52.5,67.7-105.1,135.3-158,202.7c-2.4,3-7.1,5.9-10.7,5.9c-62.2,0.3-124.3,0.1-186.5,0.1
				C591.1,822.9,591.1,822.3,591.1,821.7z"/>
		</defs>
		<defs>
			<path id="SVGID_23_" d="M1905.8-33c6.9,1.9,14.1,3.1,20.8,5.7c12.6,4.8,21.6,14.1,28.1,25.8c25.7,46.1,51.4,92.1,76.7,138.4
				c10.1,18.6,4.1,33.7-15.2,41.4c-11,4.4-11.9,9.7-2.8,19.8c32.6,36,65.4,71.9,98.1,107.8c11.3,12.4,22.6,24.9,34.9,38.5
				c-3.8,0.3-6,0.7-8.3,0.7c-47.7,0-95.4-0.2-143,0c-6.1,0-9.8-1.9-13.5-6.8c-33.7-44.9-67.6-89.5-101.5-134.2
				c-2.5-3.4-5.5-6.4-8.3-9.6c-1,0.6-1.9,1.2-2.9,1.7c17.4,49.1,34.7,98.1,52.4,148.2c-49,0-96.5,0-145.2,0
				c-3.7-16.4-7.6-33-11.3-49.6c-23.9-105.7-47.9-211.5-71.7-317.2c-0.8-3.4-0.6-7-0.8-10.5C1763.3-33,1834.6-33,1905.8-33z
				 M1817.6,52.2c3.7,10.3,6.5,19.1,10.1,27.7c0.9,2.1,4,4.4,6.2,4.5c9.3,0.5,18.7,0.8,27.9-0.2c3.6-0.4,8.6-3.8,9.9-7.1
				c3.5-9.1-6.9-24.4-16.7-24.8C1843,51.7,1831,52.2,1817.6,52.2z"/>
		</defs>
		<defs>
			<path id="SVGID_24_" d="M1925.1,640.8c50.7,0,99.6-0.1,148.4,0.2c2.6,0,6.3,3.1,7.4,5.6c4.2,9,7.2,18.5,11.2,27.6
				c6.8,15.9,29.9,23.4,45.1,14.8c7.1-4,10.1-12.1,6.8-20.4c-4-10.1-8-20.2-13-29.8c-6.1-11.7-15.7-18.4-29.8-18.4
				c-41,0.2-82.1,0.2-123.1,0c-7.8,0-15.7-0.7-23.4-1.7c-20.7-2.6-35.7-14-42.9-33.1c-8.1-21.6-14.3-44-20.8-66.2
				c-11.1-38.1-21.8-76.4-32.6-114.7c-1.3-4.6-2.6-9.3-3.1-14.1c-1.6-14,4.1-24.7,17.5-29c9.6-3.1,20-4.9,30.1-5
				c69.1-0.4,138.2-0.3,207.3-0.1c9,0,18.1,1.5,26.8,3.5c13.1,3,23.9,10,30.6,22.1c19.5,35,38.9,70.1,58.3,105.2
				c0.7,1.2,1.1,2.6,1.9,4.7c-3.4,0.2-6,0.5-8.6,0.5c-47.4,0-94.7-0.1-142.1,0.1c-6.4,0-9.9-1.6-12-7.9
				c-7.7-23.6-21.3-22.2-43.8-19.7c-6,0.7-8.2,6.1-6.3,11.8c2.6,7.7,5.3,15.5,9,22.6c4.1,7.9,11.9,10.7,20.5,10.8
				c25,0.1,50.1,0,75.1,0.2c27.7,0.2,55.5,0.3,83.2,1.4c9.4,0.4,19,3.3,28.1,6.2c10.3,3.4,17.9,10.4,23.3,20.2
				c40.2,72.8,80.6,145.6,120.9,218.3c1.5,2.6,2.9,5.3,4.1,8c13.7,31.9-3.5,58.6-38.1,58.7c-105.6,0.1-211.2,0.1-316.8,0
				c-27.6,0-48.8-13.9-58.3-43C1951.3,735,1938.9,688.4,1925.1,640.8z"/>
		</defs>
		<defs>
			<path id="SVGID_25_" d="M1721.7,823.3c-55,0-108.6,0-163.1,0c-3.7-155.3-7.4-310.2-11.1-466.2c3.6-0.2,6.8-0.4,10-0.4
				c75.4,0,150.9-0.1,226.3,0c30.9,0,55.5,17.9,63.9,47.6c14,49.5,27.8,99.1,40.5,149c3.2,12.5,3,26.3,1.6,39.3
				c-1.6,15.3-12.2,25.3-27.3,27.4c-14.8,2-18.6,9.7-9.2,23.2c20.5,29.1,41.3,57.9,62.1,86.8c20.2,28.2,40.5,56.3,60.7,84.5
				c1.9,2.6,3.6,5.3,6.3,9.3c-4.4,0-7.3,0-10.2,0c-54.6,0-109.2-0.1-163.8,0.2c-6.3,0-9.5-2-12.4-7.6
				c-29.1-56.2-58.4-112.3-87.8-168.3c-1.6-3-4.1-5.4-6.2-8.1c-1,0.5-1.9,1-2.9,1.5C1706.6,701.7,1714.1,762,1721.7,823.3z
				 M1682.7,510.7c13.5,0,26.1,0.1,38.8,0c10.1-0.1,14.3-3.2,13.9-13.2c-0.3-8.4-2.7-17-5.8-24.9c-1.3-3.4-6.7-7.2-10.4-7.4
				c-13.7-0.9-27.5-0.3-42.3-0.3C1678.9,480.4,1680.8,495.2,1682.7,510.7z"/>
		</defs>
		<clipPath id="SVGID_26_">
			<use xlink:href="#SVGID_21_"  style="overflow:visible;"/>
		</clipPath>
		<clipPath id="SVGID_27_" class="st6">
			<use xlink:href="#SVGID_22_"  style="overflow:visible;"/>
		</clipPath>
		<clipPath id="SVGID_28_" class="st7">
			<use xlink:href="#SVGID_23_"  style="overflow:visible;"/>
		</clipPath>
		<clipPath id="SVGID_29_" class="st8">
			<use xlink:href="#SVGID_24_"  style="overflow:visible;"/>
		</clipPath>
		<clipPath id="SVGID_30_" class="st9">
			<use xlink:href="#SVGID_25_"  style="overflow:visible;"/>
		</clipPath>
	</g>
	<g>
		<defs>
			<path id="SVGID_31_" d="M1679.4-33c4.5,19.6,9.3,39.1,13.5,58.8c22.3,104.5,44.5,209.1,66.8,313.7c0.3,1.4,0.5,2.9,0.8,4.9
				c-46.9,0-93.2,0-140.6,0c-1.7-23.6-3.4-47.1-5.1-70.9c-21.1,0-41.3,0-61.9,0c-6.9,23.8-13.7,47.5-20.6,71.1
				c-89.3,0-177.9,0-267.7,0c22-97.5,43.9-194.2,66-291.8c-3.4-0.2-6-0.6-8.6-0.6c-45.6,0-91.1,0-136.7,0.3
				c-7.1,0.1-14.4,1.4-21.4,3c-7.1,1.6-13.2,5.1-12.2,14.1c1,8.3,8,14.9,16.6,15c20.8,0.2,41.6,0.1,62.5,0.1
				c15.1,0,30.2-0.2,45.3,0.2c20.3,0.5,29.8,11.3,25.6,31.2c-7.1,33.9-15.5,67.5-23.4,101.2c-6.4,27.2-13.6,54.3-19.5,81.7
				c-6.4,29.8-24.3,41.9-52.6,44.6c-19.7,1.9-39.8,1.4-59.7,1.4c-69.7,0.1-139.4,0.2-209.1-0.1c-8.9,0-18.2-1.1-26.7-3.6
				c-14.9-4.3-21.6-16.6-17.8-31.7c2.1-8.4,5.3-16.7,9.5-24.3c14.3-25.8,29.2-51.4,44.2-76.8c1.6-2.7,5.8-5.5,8.8-5.5
				c43.7-0.4,87.5-0.3,131.3-0.2c1.2,0,2.4,0.3,4.7,0.6c-1.3,3.4-2.6,6.3-3.6,9.3c-4.3,13.7,2.8,23.4,17,23.6
				c32.6,0.5,32.6,0.5,44.1-30.3c1.7-4.5,3.7-9,4.8-13.6c3.1-12.5-2.2-19.2-15-19.2c-37.7-0.1-75.4,0-113.2,0
				c-33.7,0-46.2-19.4-30-48.8c23.6-42.7,48.4-84.8,73.2-126.9c10.6-18,27.4-26.7,47.9-28.8c2.9-0.3,5.8-1.1,8.8-1.7
				c137.6,0,275.3,0,412.9,0c-10,25.8-20.1,51.6-29.7,77.6c-2.3,6.2-5.7,7.8-11.9,7.7c-19.2-0.4-38.5-0.1-58.3-0.1
				c-8.8,90.2-17.6,179.6-26.3,269c2-1.6,2.9-3.5,3.6-5.4c28.3-73,56.5-146.1,84.8-219.1c16.6-43.3,33.5-86.5,50.4-129.7
				C1593.7-33,1636.6-33,1679.4-33z M1609.6,194.8c-1.6-23.8-3.2-47-4.7-69.8c-7-2.2-10.3-0.3-11.3,6c-0.5,2.9-1.7,5.8-2.5,8.6
				c-5.1,18.2-10.3,36.3-15.6,55.2C1587.1,194.8,1597.8,194.8,1609.6,194.8z"/>
		</defs>
		<defs>
			<path id="SVGID_32_" d="M591.1,821.7c5.5-8.8,11.3-17.5,16.5-26.6C690.4,651.8,773.2,508.4,855.8,365c3.6-6.3,7.5-8.7,14.8-8.6
				c35,0.4,69.9,0.2,106.8,0.2c-39.6,74.7-78.5,148.3-117.5,221.8c0.4,0.3,0.8,0.6,1.3,0.9c9.2-10.5,18.4-21,27.6-31.6
				c53.3-61.6,106.7-123.1,159.9-184.8c3.9-4.5,7.8-6.5,13.9-6.4c28.9,0.3,57.9,0.1,88.3,0.1c-18.9,71.1-37.5,141.3-56.2,211.5
				c0.5,0.2,0.9,0.5,1.4,0.7c9.7-14.7,19.4-29.4,29.1-44.1c34.9-53.5,69.9-107,104.6-160.7c3.5-5.5,7.3-7.5,13.7-7.5
				c36.8,0.3,73.6,0.2,110.5,0.2c2.6,0,5.2,0.2,8.9,0.4c-1.9,3.5-3.2,6.1-4.7,8.5c-92.5,149.8-184.7,299.4-276.7,449.2
				c-4.2,6.8-8.5,9.2-16.4,9.1c-48.9-0.4-97.8-0.2-146.7-0.2c-3,0-5.9,0-10.1,0c19.1-72.4,38-143.9,56.9-215.4
				c-9.3-4.2-14.1,0.3-18.9,6.5c-52.5,67.7-105.1,135.3-158,202.7c-2.4,3-7.1,5.9-10.7,5.9c-62.2,0.3-124.3,0.1-186.5,0.1
				C591.1,822.9,591.1,822.3,591.1,821.7z"/>
		</defs>
		<defs>
			<path id="SVGID_33_" d="M1905.8-33c6.9,1.9,14.1,3.1,20.8,5.7c12.6,4.8,21.6,14.1,28.1,25.8c25.7,46.1,51.4,92.1,76.7,138.4
				c10.1,18.6,4.1,33.7-15.2,41.4c-11,4.4-11.9,9.7-2.8,19.8c32.6,36,65.4,71.9,98.1,107.8c11.3,12.4,22.6,24.9,34.9,38.5
				c-3.8,0.3-6,0.7-8.3,0.7c-47.7,0-95.4-0.2-143,0c-6.1,0-9.8-1.9-13.5-6.8c-33.7-44.9-67.6-89.5-101.5-134.2
				c-2.5-3.4-5.5-6.4-8.3-9.6c-1,0.6-1.9,1.2-2.9,1.7c17.4,49.1,34.7,98.1,52.4,148.2c-49,0-96.5,0-145.2,0
				c-3.7-16.4-7.6-33-11.3-49.6c-23.9-105.7-47.9-211.5-71.7-317.2c-0.8-3.4-0.6-7-0.8-10.5C1763.3-33,1834.6-33,1905.8-33z
				 M1817.6,52.2c3.7,10.3,6.5,19.1,10.1,27.7c0.9,2.1,4,4.4,6.2,4.5c9.3,0.5,18.7,0.8,27.9-0.2c3.6-0.4,8.6-3.8,9.9-7.1
				c3.5-9.1-6.9-24.4-16.7-24.8C1843,51.7,1831,52.2,1817.6,52.2z"/>
		</defs>
		<defs>
			<path id="SVGID_34_" d="M1925.1,640.8c50.7,0,99.6-0.1,148.4,0.2c2.6,0,6.3,3.1,7.4,5.6c4.2,9,7.2,18.5,11.2,27.6
				c6.8,15.9,29.9,23.4,45.1,14.8c7.1-4,10.1-12.1,6.8-20.4c-4-10.1-8-20.2-13-29.8c-6.1-11.7-15.7-18.4-29.8-18.4
				c-41,0.2-82.1,0.2-123.1,0c-7.8,0-15.7-0.7-23.4-1.7c-20.7-2.6-35.7-14-42.9-33.1c-8.1-21.6-14.3-44-20.8-66.2
				c-11.1-38.1-21.8-76.4-32.6-114.7c-1.3-4.6-2.6-9.3-3.1-14.1c-1.6-14,4.1-24.7,17.5-29c9.6-3.1,20-4.9,30.1-5
				c69.1-0.4,138.2-0.3,207.3-0.1c9,0,18.1,1.5,26.8,3.5c13.1,3,23.9,10,30.6,22.1c19.5,35,38.9,70.1,58.3,105.2
				c0.7,1.2,1.1,2.6,1.9,4.7c-3.4,0.2-6,0.5-8.6,0.5c-47.4,0-94.7-0.1-142.1,0.1c-6.4,0-9.9-1.6-12-7.9
				c-7.7-23.6-21.3-22.2-43.8-19.7c-6,0.7-8.2,6.1-6.3,11.8c2.6,7.7,5.3,15.5,9,22.6c4.1,7.9,11.9,10.7,20.5,10.8
				c25,0.1,50.1,0,75.1,0.2c27.7,0.2,55.5,0.3,83.2,1.4c9.4,0.4,19,3.3,28.1,6.2c10.3,3.4,17.9,10.4,23.3,20.2
				c40.2,72.8,80.6,145.6,120.9,218.3c1.5,2.6,2.9,5.3,4.1,8c13.7,31.9-3.5,58.6-38.1,58.7c-105.6,0.1-211.2,0.1-316.8,0
				c-27.6,0-48.8-13.9-58.3-43C1951.3,735,1938.9,688.4,1925.1,640.8z"/>
		</defs>
		<defs>
			<path id="SVGID_35_" d="M1721.7,823.3c-55,0-108.6,0-163.1,0c-3.7-155.3-7.4-310.2-11.1-466.2c3.6-0.2,6.8-0.4,10-0.4
				c75.4,0,150.9-0.1,226.3,0c30.9,0,55.5,17.9,63.9,47.6c14,49.5,27.8,99.1,40.5,149c3.2,12.5,3,26.3,1.6,39.3
				c-1.6,15.3-12.2,25.3-27.3,27.4c-14.8,2-18.6,9.7-9.2,23.2c20.5,29.1,41.3,57.9,62.1,86.8c20.2,28.2,40.5,56.3,60.7,84.5
				c1.9,2.6,3.6,5.3,6.3,9.3c-4.4,0-7.3,0-10.2,0c-54.6,0-109.2-0.1-163.8,0.2c-6.3,0-9.5-2-12.4-7.6
				c-29.1-56.2-58.4-112.3-87.8-168.3c-1.6-3-4.1-5.4-6.2-8.1c-1,0.5-1.9,1-2.9,1.5C1706.6,701.7,1714.1,762,1721.7,823.3z
				 M1682.7,510.7c13.5,0,26.1,0.1,38.8,0c10.1-0.1,14.3-3.2,13.9-13.2c-0.3-8.4-2.7-17-5.8-24.9c-1.3-3.4-6.7-7.2-10.4-7.4
				c-13.7-0.9-27.5-0.3-42.3-0.3C1678.9,480.4,1680.8,495.2,1682.7,510.7z"/>
		</defs>
		<defs>
			<path id="SVGID_36_" d="M1536,357.3c2.1,155.5,4.3,310.4,6.4,465.9c-54.3,0-107.5,0-162.1,0c2.7-28.6,5.3-56.9,8-86.6
				c-11.5,0-22.2,0-33,0c-14.2,0-28.4,0.3-42.5-0.1c-5.7-0.2-8.5,1.8-11.1,6.7c-13.2,25.1-26.6,50-40.3,74.8
				c-1.5,2.7-5.7,5.5-8.6,5.5c-52.2,0.3-104.4,0.2-156.6,0.2c-1.2,0-2.3-0.2-4.3-0.4c1.2-2.5,2-4.7,3.2-6.6
				c92.1-151,184.3-302.1,276.6-453c1.9-3.2,6.6-6.7,10-6.7c49.8-0.4,99.6-0.3,149.3-0.2C1532.3,356.7,1533.5,357,1536,357.3z
				 M1397.6,640.5c2.4-25.7,4.7-50.4,7.1-75.1c-0.8-0.6-1.6-1.2-2.4-1.7c-2.4,2.1-5.6,3.8-7.1,6.5c-9.9,17.9-19.5,35.9-29.1,53.9
				c-2.8,5.2-5.5,10.4-8.6,16.5C1371.3,640.5,1383.9,640.5,1397.6,640.5z"/>
		</defs>
		<clipPath id="SVGID_37_">
			<use xlink:href="#SVGID_31_"  style="overflow:visible;"/>
		</clipPath>
		<clipPath id="SVGID_38_" class="st10">
			<use xlink:href="#SVGID_32_"  style="overflow:visible;"/>
		</clipPath>
		<clipPath id="SVGID_39_" class="st11">
			<use xlink:href="#SVGID_33_"  style="overflow:visible;"/>
		</clipPath>
		<clipPath id="SVGID_40_" class="st12">
			<use xlink:href="#SVGID_34_"  style="overflow:visible;"/>
		</clipPath>
		<clipPath id="SVGID_41_" class="st13">
			<use xlink:href="#SVGID_35_"  style="overflow:visible;"/>
		</clipPath>
		<clipPath id="SVGID_42_" class="st14">
			<use xlink:href="#SVGID_36_"  style="overflow:visible;"/>
		</clipPath>
		<g id="logo-stroke" class="st15">
			<path d="M1679.4-33c4.5,19.6,9.3,39.1,13.5,58.8c22.3,104.5,44.5,209.1,66.8,313.7c0.3,1.4,0.5,2.9,0.8,4.9
				c-46.9,0-93.2,0-140.6,0c-1.7-23.6-3.4-47.1-5.1-70.9c-21.1,0-41.3,0-61.9,0c-6.9,23.8-13.7,47.5-20.6,71.1
				c-89.3,0-177.9,0-267.7,0c22-97.5,43.9-194.2,66-291.8c-3.4-0.2-6-0.6-8.6-0.6c-45.6,0-91.1,0-136.7,0.3
				c-7.1,0.1-14.4,1.4-21.4,3c-7.1,1.6-13.2,5.1-12.2,14.1c1,8.3,8,14.9,16.6,15c20.8,0.2,41.6,0.1,62.5,0.1
				c15.1,0,30.2-0.2,45.3,0.2c20.3,0.5,29.8,11.3,25.6,31.2c-7.1,33.9-15.5,67.5-23.4,101.2c-6.4,27.2-13.6,54.3-19.5,81.7
				c-6.4,29.8-24.3,41.9-52.6,44.6c-19.7,1.9-39.8,1.4-59.7,1.4c-69.7,0.1-139.4,0.2-209.1-0.1c-8.9,0-18.2-1.1-26.7-3.6
				c-14.9-4.3-21.6-16.6-17.8-31.7c2.1-8.4,5.3-16.7,9.5-24.3c14.3-25.8,29.2-51.4,44.2-76.8c1.6-2.7,5.8-5.5,8.8-5.5
				c43.7-0.4,87.5-0.3,131.3-0.2c1.2,0,2.4,0.3,4.7,0.6c-1.3,3.4-2.6,6.3-3.6,9.3c-4.3,13.7,2.8,23.4,17,23.6
				c32.6,0.5,32.6,0.5,44.1-30.3c1.7-4.5,3.7-9,4.8-13.6c3.1-12.5-2.2-19.2-15-19.2c-37.7-0.1-75.4,0-113.2,0
				c-33.7,0-46.2-19.4-30-48.8c23.6-42.7,48.4-84.8,73.2-126.9c10.6-18,27.4-26.7,47.9-28.8c2.9-0.3,5.8-1.1,8.8-1.7
				c137.6,0,275.3,0,412.9,0c-10,25.8-20.1,51.6-29.7,77.6c-2.3,6.2-5.7,7.8-11.9,7.7c-19.2-0.4-38.5-0.1-58.3-0.1
				c-8.8,90.2-17.6,179.6-26.3,269c2-1.6,2.9-3.5,3.6-5.4c28.3-73,56.5-146.1,84.8-219.1c16.6-43.3,33.5-86.5,50.4-129.7
				C1593.7-33,1636.6-33,1679.4-33z M1609.6,194.8c-1.6-23.8-3.2-47-4.7-69.8c-7-2.2-10.3-0.3-11.3,6c-0.5,2.9-1.7,5.8-2.5,8.6
				c-5.1,18.2-10.3,36.3-15.6,55.2C1587.1,194.8,1597.8,194.8,1609.6,194.8z"/>
			<path d="M591.1,821.7c5.5-8.8,11.3-17.5,16.5-26.6C690.4,651.8,773.2,508.4,855.8,365c3.6-6.3,7.5-8.7,14.8-8.6
				c35,0.4,69.9,0.2,106.8,0.2c-39.6,74.7-78.5,148.3-117.5,221.8c0.4,0.3,0.8,0.6,1.3,0.9c9.2-10.5,18.4-21,27.6-31.6
				c53.3-61.6,106.7-123.1,159.9-184.8c3.9-4.5,7.8-6.5,13.9-6.4c28.9,0.3,57.9,0.1,88.3,0.1c-18.9,71.1-37.5,141.3-56.2,211.5
				c0.5,0.2,0.9,0.5,1.4,0.7c9.7-14.7,19.4-29.4,29.1-44.1c34.9-53.5,69.9-107,104.6-160.7c3.5-5.5,7.3-7.5,13.7-7.5
				c36.8,0.3,73.6,0.2,110.5,0.2c2.6,0,5.2,0.2,8.9,0.4c-1.9,3.5-3.2,6.1-4.7,8.5c-92.5,149.8-184.7,299.4-276.7,449.2
				c-4.2,6.8-8.5,9.2-16.4,9.1c-48.9-0.4-97.8-0.2-146.7-0.2c-3,0-5.9,0-10.1,0c19.1-72.4,38-143.9,56.9-215.4
				c-9.3-4.2-14.1,0.3-18.9,6.5c-52.5,67.7-105.1,135.3-158,202.7c-2.4,3-7.1,5.9-10.7,5.9c-62.2,0.3-124.3,0.1-186.5,0.1
				C591.1,822.9,591.1,822.3,591.1,821.7z"/>
			<path d="M1905.8-33c6.9,1.9,14.1,3.1,20.8,5.7c12.6,4.8,21.6,14.1,28.1,25.8c25.7,46.1,51.4,92.1,76.7,138.4
				c10.1,18.6,4.1,33.7-15.2,41.4c-11,4.4-11.9,9.7-2.8,19.8c32.6,36,65.4,71.9,98.1,107.8c11.3,12.4,22.6,24.9,34.9,38.5
				c-3.8,0.3-6,0.7-8.3,0.7c-47.7,0-95.4-0.2-143,0c-6.1,0-9.8-1.9-13.5-6.8c-33.7-44.9-67.6-89.5-101.5-134.2
				c-2.5-3.4-5.5-6.4-8.3-9.6c-1,0.6-1.9,1.2-2.9,1.7c17.4,49.1,34.7,98.1,52.4,148.2c-49,0-96.5,0-145.2,0
				c-3.7-16.4-7.6-33-11.3-49.6c-23.9-105.7-47.9-211.5-71.7-317.2c-0.8-3.4-0.6-7-0.8-10.5C1763.3-33,1834.6-33,1905.8-33z
				 M1817.6,52.2c3.7,10.3,6.5,19.1,10.1,27.7c0.9,2.1,4,4.4,6.2,4.5c9.3,0.5,18.7,0.8,27.9-0.2c3.6-0.4,8.6-3.8,9.9-7.1
				c3.5-9.1-6.9-24.4-16.7-24.8C1843,51.7,1831,52.2,1817.6,52.2z"/>
			<path d="M1925.1,640.8c50.7,0,99.6-0.1,148.4,0.2c2.6,0,6.3,3.1,7.4,5.6c4.2,9,7.2,18.5,11.2,27.6c6.8,15.9,29.9,23.4,45.1,14.8
				c7.1-4,10.1-12.1,6.8-20.4c-4-10.1-8-20.2-13-29.8c-6.1-11.7-15.7-18.4-29.8-18.4c-41,0.2-82.1,0.2-123.1,0
				c-7.8,0-15.7-0.7-23.4-1.7c-20.7-2.6-35.7-14-42.9-33.1c-8.1-21.6-14.3-44-20.8-66.2c-11.1-38.1-21.8-76.4-32.6-114.7
				c-1.3-4.6-2.6-9.3-3.1-14.1c-1.6-14,4.1-24.7,17.5-29c9.6-3.1,20-4.9,30.1-5c69.1-0.4,138.2-0.3,207.3-0.1c9,0,18.1,1.5,26.8,3.5
				c13.1,3,23.9,10,30.6,22.1c19.5,35,38.9,70.1,58.3,105.2c0.7,1.2,1.1,2.6,1.9,4.7c-3.4,0.2-6,0.5-8.6,0.5
				c-47.4,0-94.7-0.1-142.1,0.1c-6.4,0-9.9-1.6-12-7.9c-7.7-23.6-21.3-22.2-43.8-19.7c-6,0.7-8.2,6.1-6.3,11.8
				c2.6,7.7,5.3,15.5,9,22.6c4.1,7.9,11.9,10.7,20.5,10.8c25,0.1,50.1,0,75.1,0.2c27.7,0.2,55.5,0.3,83.2,1.4
				c9.4,0.4,19,3.3,28.1,6.2c10.3,3.4,17.9,10.4,23.3,20.2c40.2,72.8,80.6,145.6,120.9,218.3c1.5,2.6,2.9,5.3,4.1,8
				c13.7,31.9-3.5,58.6-38.1,58.7c-105.6,0.1-211.2,0.1-316.8,0c-27.6,0-48.8-13.9-58.3-43C1951.3,735,1938.9,688.4,1925.1,640.8z"
				/>
			<path d="M1721.7,823.3c-55,0-108.6,0-163.1,0c-3.7-155.3-7.4-310.2-11.1-466.2c3.6-0.2,6.8-0.4,10-0.4c75.4,0,150.9-0.1,226.3,0
				c30.9,0,55.5,17.9,63.9,47.6c14,49.5,27.8,99.1,40.5,149c3.2,12.5,3,26.3,1.6,39.3c-1.6,15.3-12.2,25.3-27.3,27.4
				c-14.8,2-18.6,9.7-9.2,23.2c20.5,29.1,41.3,57.9,62.1,86.8c20.2,28.2,40.5,56.3,60.7,84.5c1.9,2.6,3.6,5.3,6.3,9.3
				c-4.4,0-7.3,0-10.2,0c-54.6,0-109.2-0.1-163.8,0.2c-6.3,0-9.5-2-12.4-7.6c-29.1-56.2-58.4-112.3-87.8-168.3
				c-1.6-3-4.1-5.4-6.2-8.1c-1,0.5-1.9,1-2.9,1.5C1706.6,701.7,1714.1,762,1721.7,823.3z M1682.7,510.7c13.5,0,26.1,0.1,38.8,0
				c10.1-0.1,14.3-3.2,13.9-13.2c-0.3-8.4-2.7-17-5.8-24.9c-1.3-3.4-6.7-7.2-10.4-7.4c-13.7-0.9-27.5-0.3-42.3-0.3
				C1678.9,480.4,1680.8,495.2,1682.7,510.7z"/>
			<path d="M1536,357.3c2.1,155.5,4.3,310.4,6.4,465.9c-54.3,0-107.5,0-162.1,0c2.7-28.6,5.3-56.9,8-86.6c-11.5,0-22.2,0-33,0
				c-14.2,0-28.4,0.3-42.5-0.1c-5.7-0.2-8.5,1.8-11.1,6.7c-13.2,25.1-26.6,50-40.3,74.8c-1.5,2.7-5.7,5.5-8.6,5.5
				c-52.2,0.3-104.4,0.2-156.6,0.2c-1.2,0-2.3-0.2-4.3-0.4c1.2-2.5,2-4.7,3.2-6.6c92.1-151,184.3-302.1,276.6-453
				c1.9-3.2,6.6-6.7,10-6.7c49.8-0.4,99.6-0.3,149.3-0.2C1532.3,356.7,1533.5,357,1536,357.3z M1397.6,640.5
				c2.4-25.7,4.7-50.4,7.1-75.1c-0.8-0.6-1.6-1.2-2.4-1.7c-2.4,2.1-5.6,3.8-7.1,6.5c-9.9,17.9-19.5,35.9-29.1,53.9
				c-2.8,5.2-5.5,10.4-8.6,16.5C1371.3,640.5,1383.9,640.5,1397.6,640.5z"/>
		</g>
	</g>
</g>
<g id="logo-fill">
	<path class="st16" d="M1679.4-33c4.5,19.6,9.3,39.1,13.5,58.8c22.3,104.5,44.5,209.1,66.8,313.7c0.3,1.4,0.5,2.9,0.8,4.9
		c-46.9,0-93.2,0-140.6,0c-1.7-23.6-3.4-47.1-5.1-70.9c-21.1,0-41.3,0-61.9,0c-6.9,23.8-13.7,47.5-20.6,71.1
		c-89.3,0-177.9,0-267.7,0c22-97.5,43.9-194.2,66-291.8c-3.4-0.2-6-0.6-8.6-0.6c-45.6,0-91.1,0-136.7,0.3c-7.1,0.1-14.4,1.4-21.4,3
		c-7.1,1.6-13.2,5.1-12.2,14.1c1,8.3,8,14.9,16.6,15c20.8,0.2,41.6,0.1,62.5,0.1c15.1,0,30.2-0.2,45.3,0.2
		c20.3,0.5,29.8,11.3,25.6,31.2c-7.1,33.9-15.5,67.5-23.4,101.2c-6.4,27.2-13.6,54.3-19.5,81.7c-6.4,29.8-24.3,41.9-52.6,44.6
		c-19.7,1.9-39.8,1.4-59.7,1.4c-69.7,0.1-139.4,0.2-209.1-0.1c-8.9,0-18.2-1.1-26.7-3.6c-14.9-4.3-21.6-16.6-17.8-31.7
		c2.1-8.4,5.3-16.7,9.5-24.3c14.3-25.8,29.2-51.4,44.2-76.8c1.6-2.7,5.8-5.5,8.8-5.5c43.7-0.4,87.5-0.3,131.3-0.2
		c1.2,0,2.4,0.3,4.7,0.6c-1.3,3.4-2.6,6.3-3.6,9.3c-4.3,13.7,2.8,23.4,17,23.6c32.6,0.5,32.6,0.5,44.1-30.3c1.7-4.5,3.7-9,4.8-13.6
		c3.1-12.5-2.2-19.2-15-19.2c-37.7-0.1-75.4,0-113.2,0c-33.7,0-46.2-19.4-30-48.8c23.6-42.7,48.4-84.8,73.2-126.9
		c10.6-18,27.4-26.7,47.9-28.8c2.9-0.3,5.8-1.1,8.8-1.7c137.6,0,275.3,0,412.9,0c-10,25.8-20.1,51.6-29.7,77.6
		c-2.3,6.2-5.7,7.8-11.9,7.7c-19.2-0.4-38.5-0.1-58.3-0.1c-8.8,90.2-17.6,179.6-26.3,269c2-1.6,2.9-3.5,3.6-5.4
		c28.3-73,56.5-146.1,84.8-219.1c16.6-43.3,33.5-86.5,50.4-129.7C1593.7-33,1636.6-33,1679.4-33z M1609.6,194.8
		c-1.6-23.8-3.2-47-4.7-69.8c-7-2.2-10.3-0.3-11.3,6c-0.5,2.9-1.7,5.8-2.5,8.6c-5.1,18.2-10.3,36.3-15.6,55.2
		C1587.1,194.8,1597.8,194.8,1609.6,194.8z"/>
	<path class="st16" d="M591.1,821.7c5.5-8.8,11.3-17.5,16.5-26.6C690.4,651.8,773.2,508.4,855.8,365c3.6-6.3,7.5-8.7,14.8-8.6
		c35,0.4,69.9,0.2,106.8,0.2c-39.6,74.7-78.5,148.3-117.5,221.8c0.4,0.3,0.8,0.6,1.3,0.9c9.2-10.5,18.4-21,27.6-31.6
		c53.3-61.6,106.7-123.1,159.9-184.8c3.9-4.5,7.8-6.5,13.9-6.4c28.9,0.3,57.9,0.1,88.3,0.1c-18.9,71.1-37.5,141.3-56.2,211.5
		c0.5,0.2,0.9,0.5,1.4,0.7c9.7-14.7,19.4-29.4,29.1-44.1c34.9-53.5,69.9-107,104.6-160.7c3.5-5.5,7.3-7.5,13.7-7.5
		c36.8,0.3,73.6,0.2,110.5,0.2c2.6,0,5.2,0.2,8.9,0.4c-1.9,3.5-3.2,6.1-4.7,8.5c-92.5,149.8-184.7,299.4-276.7,449.2
		c-4.2,6.8-8.5,9.2-16.4,9.1c-48.9-0.4-97.8-0.2-146.7-0.2c-3,0-5.9,0-10.1,0c19.1-72.4,38-143.9,56.9-215.4
		c-9.3-4.2-14.1,0.3-18.9,6.5c-52.5,67.7-105.1,135.3-158,202.7c-2.4,3-7.1,5.9-10.7,5.9c-62.2,0.3-124.3,0.1-186.5,0.1
		C591.1,822.9,591.1,822.3,591.1,821.7z"/>
	<path class="st16" d="M1905.8-33c6.9,1.9,14.1,3.1,20.8,5.7c12.6,4.8,21.6,14.1,28.1,25.8c25.7,46.1,51.4,92.1,76.7,138.4
		c10.1,18.6,4.1,33.7-15.2,41.4c-11,4.4-11.9,9.7-2.8,19.8c32.6,36,65.4,71.9,98.1,107.8c11.3,12.4,22.6,24.9,34.9,38.5
		c-3.8,0.3-6,0.7-8.3,0.7c-47.7,0-95.4-0.2-143,0c-6.1,0-9.8-1.9-13.5-6.8c-33.7-44.9-67.6-89.5-101.5-134.2
		c-2.5-3.4-5.5-6.4-8.3-9.6c-1,0.6-1.9,1.2-2.9,1.7c17.4,49.1,34.7,98.1,52.4,148.2c-49,0-96.5,0-145.2,0
		c-3.7-16.4-7.6-33-11.3-49.6c-23.9-105.7-47.9-211.5-71.7-317.2c-0.8-3.4-0.6-7-0.8-10.5C1763.3-33,1834.6-33,1905.8-33z
		 M1817.6,52.2c3.7,10.3,6.5,19.1,10.1,27.7c0.9,2.1,4,4.4,6.2,4.5c9.3,0.5,18.7,0.8,27.9-0.2c3.6-0.4,8.6-3.8,9.9-7.1
		c3.5-9.1-6.9-24.4-16.7-24.8C1843,51.7,1831,52.2,1817.6,52.2z"/>
	<path class="st16" d="M1925.1,640.8c50.7,0,99.6-0.1,148.4,0.2c2.6,0,6.3,3.1,7.4,5.6c4.2,9,7.2,18.5,11.2,27.6
		c6.8,15.9,29.9,23.4,45.1,14.8c7.1-4,10.1-12.1,6.8-20.4c-4-10.1-8-20.2-13-29.8c-6.1-11.7-15.7-18.4-29.8-18.4
		c-41,0.2-82.1,0.2-123.1,0c-7.8,0-15.7-0.7-23.4-1.7c-20.7-2.6-35.7-14-42.9-33.1c-8.1-21.6-14.3-44-20.8-66.2
		c-11.1-38.1-21.8-76.4-32.6-114.7c-1.3-4.6-2.6-9.3-3.1-14.1c-1.6-14,4.1-24.7,17.5-29c9.6-3.1,20-4.9,30.1-5
		c69.1-0.4,138.2-0.3,207.3-0.1c9,0,18.1,1.5,26.8,3.5c13.1,3,23.9,10,30.6,22.1c19.5,35,38.9,70.1,58.3,105.2
		c0.7,1.2,1.1,2.6,1.9,4.7c-3.4,0.2-6,0.5-8.6,0.5c-47.4,0-94.7-0.1-142.1,0.1c-6.4,0-9.9-1.6-12-7.9c-7.7-23.6-21.3-22.2-43.8-19.7
		c-6,0.7-8.2,6.1-6.3,11.8c2.6,7.7,5.3,15.5,9,22.6c4.1,7.9,11.9,10.7,20.5,10.8c25,0.1,50.1,0,75.1,0.2c27.7,0.2,55.5,0.3,83.2,1.4
		c9.4,0.4,19,3.3,28.1,6.2c10.3,3.4,17.9,10.4,23.3,20.2c40.2,72.8,80.6,145.6,120.9,218.3c1.5,2.6,2.9,5.3,4.1,8
		c13.7,31.9-3.5,58.6-38.1,58.7c-105.6,0.1-211.2,0.1-316.8,0c-27.6,0-48.8-13.9-58.3-43C1951.3,735,1938.9,688.4,1925.1,640.8z"/>
	<path class="st16" d="M1721.7,823.3c-55,0-108.6,0-163.1,0c-3.7-155.3-7.4-310.2-11.1-466.2c3.6-0.2,6.8-0.4,10-0.4
		c75.4,0,150.9-0.1,226.3,0c30.9,0,55.5,17.9,63.9,47.6c14,49.5,27.8,99.1,40.5,149c3.2,12.5,3,26.3,1.6,39.3
		c-1.6,15.3-12.2,25.3-27.3,27.4c-14.8,2-18.6,9.7-9.2,23.2c20.5,29.1,41.3,57.9,62.1,86.8c20.2,28.2,40.5,56.3,60.7,84.5
		c1.9,2.6,3.6,5.3,6.3,9.3c-4.4,0-7.3,0-10.2,0c-54.6,0-109.2-0.1-163.8,0.2c-6.3,0-9.5-2-12.4-7.6
		c-29.1-56.2-58.4-112.3-87.8-168.3c-1.6-3-4.1-5.4-6.2-8.1c-1,0.5-1.9,1-2.9,1.5C1706.6,701.7,1714.1,762,1721.7,823.3z
		 M1682.7,510.7c13.5,0,26.1,0.1,38.8,0c10.1-0.1,14.3-3.2,13.9-13.2c-0.3-8.4-2.7-17-5.8-24.9c-1.3-3.4-6.7-7.2-10.4-7.4
		c-13.7-0.9-27.5-0.3-42.3-0.3C1678.9,480.4,1680.8,495.2,1682.7,510.7z"/>
	<path class="st16" d="M1536,357.3c2.1,155.5,4.3,310.4,6.4,465.9c-54.3,0-107.5,0-162.1,0c2.7-28.6,5.3-56.9,8-86.6
		c-11.5,0-22.2,0-33,0c-14.2,0-28.4,0.3-42.5-0.1c-5.7-0.2-8.5,1.8-11.1,6.7c-13.2,25.1-26.6,50-40.3,74.8c-1.5,2.7-5.7,5.5-8.6,5.5
		c-52.2,0.3-104.4,0.2-156.6,0.2c-1.2,0-2.3-0.2-4.3-0.4c1.2-2.5,2-4.7,3.2-6.6c92.1-151,184.3-302.1,276.6-453
		c1.9-3.2,6.6-6.7,10-6.7c49.8-0.4,99.6-0.3,149.3-0.2C1532.3,356.7,1533.5,357,1536,357.3z M1397.6,640.5
		c2.4-25.7,4.7-50.4,7.1-75.1c-0.8-0.6-1.6-1.2-2.4-1.7c-2.4,2.1-5.6,3.8-7.1,6.5c-9.9,17.9-19.5,35.9-29.1,53.9
		c-2.8,5.2-5.5,10.4-8.6,16.5C1371.3,640.5,1383.9,640.5,1397.6,640.5z"/>
</g>
</svg>
