<?xml version="1.0" encoding="utf-8"?>
<!DOCTYPE svg PUBLIC "-//W3C//DTD SVG 1.1//EN" "http://www.w3.org/Graphics/SVG/1.1/DTD/svg11.dtd">
<svg version="1.1" id="Layer_1" xmlns="http://www.w3.org/2000/svg" xmlns:xlink="http://www.w3.org/1999/xlink" x="0px" y="0px"
	 viewBox="0 0 283.2 94.8" style="enable-background:new 0 0 283.2 94.8;" xml:space="preserve">
<style type="text/css">
	.st0{fill:#b89e4e;}
	.st1{fill:#FFFFFF;}
</style>
<rect x="0" y="0" class="st0" width="94.8" height="94.8"/>
<path class="st1" d="M69,57l-1.2-2.1L47.5,19.6l-8,13.9l-1.2,2L18.1,70.8h16h2.4h40.4L69,57z M65.3,56L65.3,56l-15.6,6.6l9.7-11.1
	L65.3,56L65.3,56z M47.5,25.1l13.6,23.6l0.3,0.5l0.9,1.5l-1.3-1l-1.4-1.1L41.7,35.2L47.5,25.1z M40.5,37.3L40.5,37.3L40.5,37.3
	l13.7,10.3l-14.6-2.9L40.5,37.3z M57.7,50.4l-12.2,14l-6.1-17.7L57.7,50.4z M34.4,68.1H22.8L36.1,45l0.5-0.8l0.9-1.6l-0.2,1.7
	L37.1,46L34.4,68.1z M36.8,68.1L36.8,68.1l2-17l4.8,14L36.8,68.1L36.8,68.1z M43.9,68.1h-1l1.5-0.7l1.7-0.7l20.4-8.7l5.8,10H44.7
	H43.9z"/>
<path class="st1" d="M122.8,38.3h0.2c1.3-2,2.8-3.6,4.6-4.6c1.8-1,4-1.5,6.5-1.5c1.9,0,3.7,0.4,5.3,1.1c1.6,0.7,2.9,1.7,4.1,2.9
	c1.1,1.2,2,2.7,2.6,4.4c0.6,1.7,1,3.6,1,5.6v24.5h-9.9v-23c0-2-0.6-3.7-1.7-5c-1.1-1.3-2.7-1.9-4.8-1.9c-2.2,0-4,0.8-5.4,2.4
	c-1.4,1.6-2.2,3.7-2.2,6.3v21.3h-9.9V33.2h9.7V38.3z"/>
<path class="st1" d="M171,71.8c-3,0-5.6-0.5-8-1.5c-2.4-1-4.4-2.4-6-4.2c-1.7-1.8-2.9-3.9-3.8-6.3c-0.9-2.4-1.4-5-1.4-7.8
	s0.4-5.4,1.3-7.8c0.9-2.4,2.1-4.5,3.8-6.3c1.6-1.8,3.6-3.2,5.9-4.2c2.3-1,4.9-1.5,7.7-1.5c2.4,0,4.6,0.3,6.6,1
	c1.9,0.7,3.6,1.6,5.1,2.8c1.4,1.2,2.6,2.6,3.5,4.3c0.9,1.7,1.5,3.5,1.9,5.6h-9.7c-0.3-1.7-1.1-3-2.3-4.1c-1.2-1.1-2.7-1.6-4.6-1.6
	c-3,0-5.3,1.1-6.8,3.2c-1.5,2.1-2.3,5-2.3,8.7c0,3.6,0.7,6.4,2.2,8.6c1.4,2.2,3.7,3.3,6.8,3.3c2,0,3.7-0.5,5-1.6
	c1.3-1,2.1-2.6,2.5-4.8h9.6c-0.1,2-0.6,3.9-1.5,5.6c-0.9,1.7-2,3.2-3.4,4.5c-1.4,1.3-3.2,2.3-5.2,3.1
	C175.8,71.5,173.5,71.8,171,71.8z"/>
<path class="st1" d="M192.6,21.1h9.9v49.6h-9.9V21.1z"/>
<path class="st1" d="M232,70.7v-4.4h-0.2c-1.3,1.7-2.7,3-4.4,4c-1.6,1-3.8,1.4-6.4,1.4c-4.2,0-7.4-1.2-9.7-3.7
	c-2.2-2.4-3.4-5.7-3.4-9.9v-25h9.9v23.3c0,2.2,0.5,3.9,1.5,5c1,1.2,2.6,1.8,4.7,1.8c2.3,0,4.2-0.8,5.5-2.4c1.3-1.6,2-3.6,2-6.1V33.2
	h9.9v37.5H232z"/>
<path class="st1" d="M262.3,71.8c-2.3,0-4.5-0.5-6.4-1.4c-2-0.9-3.6-2.2-5-3.9c-1.4-1.7-2.5-3.8-3.3-6.3c-0.8-2.5-1.2-5.2-1.2-8.2
	c0-2.9,0.4-5.6,1.2-8c0.8-2.4,1.9-4.5,3.3-6.3c1.4-1.7,3.1-3.1,5.1-4.1c1.9-1,4.1-1.5,6.4-1.5c2.6,0,4.8,0.5,6.5,1.6
	c1.7,1.1,3.1,2.4,4.1,3.9h0.2V21.1h9.9v49.6h-9.6v-4.9h-0.1c-1.1,1.8-2.6,3.3-4.5,4.4C267.2,71.3,265,71.8,262.3,71.8z M264.5,63.5
	c3,0,5.2-1,6.7-3c1.5-2,2.3-4.8,2.3-8.2c0-1.8-0.2-3.4-0.5-4.9c-0.3-1.5-0.8-2.7-1.5-3.8c-0.7-1-1.6-1.9-2.7-2.4
	c-1.1-0.6-2.4-0.9-4.1-0.9c-2.7,0-4.8,1.1-6.2,3.3c-1.4,2.2-2.1,5-2.1,8.5c0,3.7,0.7,6.5,2,8.5C260,62.5,261.9,63.5,264.5,63.5z"/>
</svg>
